<svg id="visual" viewBox="0 0 900 600" width="900" height="600" xmlns="http://www.w3.org/2000/svg" xmlns:xlink="http://www.w3.org/1999/xlink" version="1.1"><rect x="0" y="0" width="900" height="600" fill="#FFA07A"></rect><path d="M0 455L21.5 461.3C43 467.7 86 480.3 128.8 472C171.7 463.7 214.3 434.3 257.2 434.5C300 434.7 343 464.3 385.8 466.8C428.7 469.3 471.3 444.7 514.2 447.2C557 449.7 600 479.3 642.8 476.7C685.7 474 728.3 439 771.2 433.8C814 428.7 857 453.3 878.5 465.7L900 478L900 601L878.5 601C857 601 814 601 771.2 601C728.3 601 685.7 601 642.8 601C600 601 557 601 514.2 601C471.3 601 428.7 601 385.8 601C343 601 300 601 257.2 601C214.3 601 171.7 601 128.8 601C86 601 43 601 21.5 601L0 601Z" fill="#FFA07A" stroke-linecap="round" stroke-linejoin="miter"></path></svg>